<mxfile host="app.diagrams.net" modified="2022-12-12T03:48:39.523Z" agent="5.0 (Macintosh; Intel Mac OS X 10_15_7) AppleWebKit/537.36 (KHTML, like Gecko) Chrome/108.0.0.0 Safari/537.36" version="20.6.0" etag="MmsS6SmjoLYrydgnTr0B" type="github">
  <diagram id="4u0PX4IIVXPdj8JKdITw" name="第 1 页">
    <mxGraphModel dx="1845" dy="732" grid="1" gridSize="10" guides="1" tooltips="1" connect="1" arrows="1" fold="1" page="1" pageScale="1" pageWidth="827" pageHeight="1169" math="0" shadow="0">
      <root>
        <mxCell id="0" />
        <mxCell id="1" parent="0" />
        <mxCell id="TnG03814g4pawRldZ808-1" value="&lt;font color=&quot;#666666&quot;&gt;查询接口&lt;/font&gt;" style="ellipse;shape=cloud;whiteSpace=wrap;html=1;fontSize=20;fillColor=#d5e8d4;strokeColor=#82b366;sketch=1;" vertex="1" parent="1">
          <mxGeometry x="230" y="380" width="230" height="140" as="geometry" />
        </mxCell>
        <mxCell id="TnG03814g4pawRldZ808-3" value="&lt;font color=&quot;#666666&quot; style=&quot;font-size: 20px;&quot;&gt;混淆的&lt;br&gt;pgcId字段&lt;/font&gt;" style="shape=cylinder3;whiteSpace=wrap;html=1;boundedLbl=1;backgroundOutline=1;size=15;fillColor=#d5e8d4;strokeColor=#82b366;sketch=1;" vertex="1" parent="1">
          <mxGeometry x="277.5" y="620" width="130" height="160" as="geometry" />
        </mxCell>
        <mxCell id="TnG03814g4pawRldZ808-4" value="&lt;font color=&quot;#666666&quot;&gt;原始的&lt;br&gt;pgcId字段&lt;/font&gt;" style="shape=cylinder3;whiteSpace=wrap;html=1;boundedLbl=1;backgroundOutline=1;size=15;sketch=1;fillColor=#d5e8d4;strokeColor=#82b366;fontSize=20;" vertex="1" parent="1">
          <mxGeometry x="-177.5" y="620" width="130" height="160" as="geometry" />
        </mxCell>
        <mxCell id="TnG03814g4pawRldZ808-5" value="&lt;font color=&quot;#666666&quot;&gt;查询接口&lt;/font&gt;" style="ellipse;shape=cloud;whiteSpace=wrap;html=1;fontSize=20;sketch=1;fillColor=#d5e8d4;strokeColor=#82b366;" vertex="1" parent="1">
          <mxGeometry x="-230" y="370" width="230" height="140" as="geometry" />
        </mxCell>
        <mxCell id="TnG03814g4pawRldZ808-6" value="" style="shape=flexArrow;endArrow=classic;html=1;rounded=0;exitX=0.5;exitY=1;exitDx=0;exitDy=0;fillColor=#d5e8d4;strokeColor=#82b366;sketch=1;entryX=0.498;entryY=0.093;entryDx=0;entryDy=0;entryPerimeter=0;" edge="1" parent="1" source="TnG03814g4pawRldZ808-8" target="TnG03814g4pawRldZ808-1">
          <mxGeometry width="50" height="50" relative="1" as="geometry">
            <mxPoint x="347.5" y="280" as="sourcePoint" />
            <mxPoint x="367.5" y="280" as="targetPoint" />
          </mxGeometry>
        </mxCell>
        <mxCell id="TnG03814g4pawRldZ808-8" value="混淆pgcId参数" style="text;html=1;strokeColor=none;fillColor=none;align=center;verticalAlign=middle;whiteSpace=wrap;rounded=0;fontSize=20;sketch=1;fontColor=#666666;" vertex="1" parent="1">
          <mxGeometry x="277.5" y="230" width="135" height="40" as="geometry" />
        </mxCell>
        <mxCell id="TnG03814g4pawRldZ808-11" value="" style="shape=flexArrow;endArrow=classic;html=1;rounded=0;exitX=0.5;exitY=1;exitDx=0;exitDy=0;fillColor=#d5e8d4;strokeColor=#82b366;sketch=1;entryX=0.502;entryY=0.1;entryDx=0;entryDy=0;entryPerimeter=0;" edge="1" parent="1" source="TnG03814g4pawRldZ808-12" target="TnG03814g4pawRldZ808-5">
          <mxGeometry width="50" height="50" relative="1" as="geometry">
            <mxPoint x="-112.5" y="280" as="sourcePoint" />
            <mxPoint x="-117.5" y="385" as="targetPoint" />
          </mxGeometry>
        </mxCell>
        <mxCell id="TnG03814g4pawRldZ808-12" value="原始pgcId参数" style="text;html=1;strokeColor=none;fillColor=none;align=center;verticalAlign=middle;whiteSpace=wrap;rounded=0;fontSize=20;sketch=1;fontColor=#666666;" vertex="1" parent="1">
          <mxGeometry x="-182.5" y="230" width="135" height="40" as="geometry" />
        </mxCell>
        <mxCell id="TnG03814g4pawRldZ808-14" value="" style="shape=flexArrow;endArrow=classic;html=1;rounded=0;fillColor=#d5e8d4;strokeColor=#82b366;sketch=1;exitX=0.507;exitY=0.936;exitDx=0;exitDy=0;exitPerimeter=0;" edge="1" parent="1" source="TnG03814g4pawRldZ808-5">
          <mxGeometry width="50" height="50" relative="1" as="geometry">
            <mxPoint x="-115.5" y="510" as="sourcePoint" />
            <mxPoint x="-112.5" y="620" as="targetPoint" />
          </mxGeometry>
        </mxCell>
        <mxCell id="TnG03814g4pawRldZ808-15" value="" style="shape=flexArrow;endArrow=classic;html=1;rounded=0;fillColor=#d5e8d4;strokeColor=#82b366;sketch=1;exitX=0.493;exitY=0.95;exitDx=0;exitDy=0;exitPerimeter=0;" edge="1" parent="1" source="TnG03814g4pawRldZ808-1">
          <mxGeometry width="50" height="50" relative="1" as="geometry">
            <mxPoint x="345" y="520" as="sourcePoint" />
            <mxPoint x="344.5" y="620" as="targetPoint" />
          </mxGeometry>
        </mxCell>
        <mxCell id="TnG03814g4pawRldZ808-17" value="" style="shape=singleArrow;whiteSpace=wrap;html=1;sketch=1;fontSize=20;fillColor=#5386FC;strokeColor=#6c8ebf;" vertex="1" parent="1">
          <mxGeometry x="40" y="420" width="156" height="60" as="geometry" />
        </mxCell>
        <mxCell id="TnG03814g4pawRldZ808-19" value="替" style="text;html=1;strokeColor=none;fillColor=none;align=center;verticalAlign=middle;whiteSpace=wrap;rounded=0;fontSize=25;sketch=1;fontColor=#007FFF;" vertex="1" parent="1">
          <mxGeometry x="40" y="400" width="135" height="40" as="geometry" />
        </mxCell>
        <mxCell id="TnG03814g4pawRldZ808-21" value="换" style="text;html=1;strokeColor=none;fillColor=none;align=center;verticalAlign=middle;whiteSpace=wrap;rounded=0;fontSize=25;sketch=1;fontColor=#007FFF;" vertex="1" parent="1">
          <mxGeometry x="40" y="460" width="135" height="40" as="geometry" />
        </mxCell>
        <mxCell id="TnG03814g4pawRldZ808-22" value="旧" style="text;strokeColor=none;fillColor=none;html=1;fontSize=24;fontStyle=1;verticalAlign=middle;align=center;sketch=1;fontColor=#FF6666;" vertex="1" parent="1">
          <mxGeometry x="190" y="210" width="100" height="40" as="geometry" />
        </mxCell>
        <mxCell id="TnG03814g4pawRldZ808-23" value="新" style="text;strokeColor=none;fillColor=none;html=1;fontSize=24;fontStyle=1;verticalAlign=middle;align=center;sketch=1;fontColor=#FF6666;" vertex="1" parent="1">
          <mxGeometry x="-270" y="210" width="100" height="40" as="geometry" />
        </mxCell>
      </root>
    </mxGraphModel>
  </diagram>
</mxfile>
